<svg xmlns="http://www.w3.org/2000/svg" viewBox="0 0 660 160" width="660" height="160">
<svg x="16" y="16" width="128" height="128" xmlns="http://www.w3.org/2000/svg" viewBox="0 0 512 512">
  <defs>
    <linearGradient id="tile" x1="0" y1="0" x2="0" y2="1">
      <stop offset="0" stop-color="#6366f1"/>
      <stop offset="1" stop-color="#4f46e5"/>
    </linearGradient>
    <linearGradient id="sheen" x1="0" y1="0" x2="0" y2="1">
      <stop offset="0" stop-color="#ffffff" stop-opacity="0.16"/>
      <stop offset="0.55" stop-color="#ffffff" stop-opacity="0"/>
    </linearGradient>
  </defs>
  <rect width="512" height="512" rx="112" fill="url(#tile)"/>
  <rect width="512" height="512" rx="112" fill="url(#sheen)"/>
  <path fill="#ffffff" fill-rule="evenodd" d="M 130 100 L 248 100 C 356 100 422 168 422 256 C 422 344 356 412 248 412 L 130 412 Z M 196 164 L 196 348 L 248 348 C 314 348 356 308 356 256 C 356 204 314 164 248 164 Z"/>
  <rect x="216" y="254" width="28" height="60" rx="7" fill="#ffffff"/>
  <rect x="256" y="224" width="28" height="90" rx="7" fill="#ffffff"/>
  <rect x="296" y="196" width="28" height="118" rx="7" fill="#ffffff"/>
</svg>

<g transform="translate(174.00 112.77)">
  <path fill="#0f172a" d="M29.397296905517578 0.0H12.168772561209543V-11.742684500558036H28.76515797206334Q35.17862047467913 -11.742684500558036 39.525089263916016 -14.013700485229492Q43.8715580531529 -16.28471646990095 46.07157570975167 -21.06377601623535Q48.271593366350444 -25.842835562569753 48.271593366350444 -33.29643249511719Q48.271593366350444 -40.73306219918388 46.057737895420615 -45.48131670270648Q43.84388242449079 -50.229571206229075 39.5313480922154 -52.5023719242641Q35.21881375994001 -54.77517264229911 28.845544542585102 -54.77517264229911H11.859842027936663V-66.51785714285714H29.642857142857142Q39.66427394321987 -66.51785714285714 46.86292239597866 -62.53258977617536Q54.061570848737446 -58.54732240949358 57.94950893947056 -51.102233614240376Q61.837447030203684 -43.65714481898716 61.837447030203684 -33.29643249511719Q61.837447030203684 -22.918752942766464 57.951293672834126 -15.453127452305386Q54.06514031546457 -7.987501961844308 46.79818289620536 -3.993750980922154Q39.53122547694615 0.0 29.397296905517578 0.0ZM19.65165819440569 -66.51785714285714V0.0H6.010796683175223V-66.51785714285714Z M85.67952019827707 0.967864990234375Q80.92327117919923 0.967864990234375 77.15808868408205 -0.7093715667724609Q73.39290618896486 -2.386608123779297 71.23665128435408 -5.703577314104352Q69.0803963797433 -9.020546504429408 69.0803963797433 -13.955366952078684Q69.0803963797433 -18.144656590053014 70.60808181762695 -20.943758828299387Q72.13576725551061 -23.74286106654576 74.78979246956962 -25.451782771519255Q77.44381768362864 -27.160704476492747 80.82105227879117 -28.052216938563756Q84.19828687395369 -28.943729400634766 87.89738518851145 -29.293733324323384Q92.21703393118723 -29.729453495570592 94.87284387860981 -30.11427198137556Q97.52865382603238 -30.499090467180526 98.76973015921457 -31.318284443446572Q100.01080649239677 -32.137478419712615 100.01080649239677 -33.750880105154856V-33.97052492414202Q100.01080649239677 -36.107172284807476 99.10320690699987 -37.58532524108887Q98.19560732160296 -39.06347819737026 96.45272663661413 -39.85054697309222Q94.70984595162528 -40.63761574881418 92.167843409947 -40.63761574881418Q89.60887363978796 -40.63761574881418 87.69099099295481 -39.85903058733259Q85.77310834612166 -39.080445425851 84.54987934657507 -37.77998379298619Q83.32665034702848 -36.47952216012138 82.78824669974192 -34.85898154122489L70.50896780831474 -36.89739499773298Q71.7777442932129 -41.2581171308245 74.7715050833566 -44.29515157427107Q77.76526587350028 -47.33218601771763 82.21211978367397 -48.93395015171596Q86.65897369384766 -50.535714285714285 92.20979690551758 -50.535714285714285Q96.22848510742188 -50.535714285714285 100.02310344151088 -49.583496366228374Q103.81772177559989 -48.63127844674247 106.83468409946987 -46.60450254167829Q109.85164642333984 -44.577726636614116 111.62486757550921 -41.3625362941197Q113.39808872767858 -38.14734595162528 113.39808872767858 -33.60086441040039V0.0H100.69917678833008V-6.930351257324219H100.25988715035575Q99.05008043561664 -4.610731942313058 97.0424965449742 -2.830371856689453Q95.03491265433176 -1.0500117710658483 92.21258435930525 -0.041073390415736655Q89.39025606427874 0.967864990234375 85.67952019827707 0.967864990234375ZM89.44995880126953 -8.42043467930385Q92.61251177106585 -8.42043467930385 95.00584329877582 -9.679382869175502Q97.39917482648578 -10.938331059047155 98.75320298331124 -13.077643258231028Q100.10723114013672 -15.2169554574149 100.10723114013672 -17.842864990234375V-23.243819645472936Q99.49562890189036 -22.832205636160715 98.30186026436942 -22.471933364868164Q97.1080916268485 -22.111661093575613 95.63842228480749 -21.826836722237722Q94.16875294276647 -21.54201235089983 92.73658752441408 -21.3326358795166Q91.30442210606168 -21.12325940813337 90.19192014421736 -20.96522467476981Q87.72404534476145 -20.63218797956194 85.85259028843473 -19.833970751081196Q83.98113523210799 -19.035753522600448 82.94540132795062 -17.69913264683315Q81.90966742379325 -16.362511771065847 81.90966742379325 -14.3490845816476Q81.90966742379325 -12.410665239606585 82.88736070905414 -11.091451644897461Q83.86505399431502 -9.772238050188337 85.55972235543388 -9.096336364746094Q87.25439071655273 -8.42043467930385 89.44995880126953 -8.42043467930385Z M144.6436882019043 0.9750039236886161Q138.61783163888114 0.9750039236886161 133.97142955235074 -0.7495403289794923Q129.3250274658203 -2.4740845816476007 126.38620240347726 -5.745946339198522Q123.44737734113421 -9.017808096749443 122.57862636021206 -13.641008649553571L135.0578934805734 -15.78474589756557Q136.032897404262 -12.304363250732422 138.48336492265975 -10.56551660810198Q140.9338324410575 -8.82666996547154 145.03652572631836 -8.82666996547154Q148.8615826198033 -8.82666996547154 151.08438628060478 -10.287415640694753Q153.30718994140625 -11.748161315917969 153.30718994140625 -13.984802791050502Q153.30718994140625 -15.947328295026507 151.72816276550293 -17.196008137294225Q150.1491355895996 -18.44468797956194 146.85358319963728 -19.124159131731307L138.260737827846 -20.89559555053711Q131.0411126273019 -22.382207598005024 127.4723734174456 -25.92148644583566Q123.90363420758929 -29.460765293666295 123.90363420758929 -35.06610870361328Q123.90363420758929 -39.85805238996233 126.51925086975098 -43.32009860447475Q129.13486753191268 -46.78214481898716 133.8393102373396 -48.65892955235073Q138.54375294276647 -50.535714285714285 144.844605582101 -50.535714285714285Q150.7740374973842 -50.535714285714285 155.10302543640137 -48.89911106654576Q159.43201337541853 -47.262507847377236 162.09628241402763 -44.284394127982004Q164.76055145263672 -41.30628040858677 165.68377358572823 -37.225052969796316L153.80271094185966 -35.13309751238142Q153.01698684692383 -37.6911381312779 150.85760252816337 -39.312143325805664Q148.6982182094029 -40.933148520333425 145.05799157278878 -40.933148520333425Q141.75080163138253 -40.933148520333425 139.5172895703997 -39.54249654497419Q137.28377750941686 -38.15184456961496 137.28377750941686 -35.87056023733957Q137.28377750941686 -33.99463108607701 138.7262112753732 -32.69416945321219Q140.1686450413295 -31.393707820347377 143.6999293736049 -30.65619604928153L152.6668357849121 -28.870481763567245Q159.9105671473912 -27.40797587803432 163.44671658107214 -24.07359940665109Q166.98286601475309 -20.739222935267858 166.98286601475309 -15.388338906424387Q166.98286601475309 -10.483003343854632 164.11948885236467 -6.802656991141183Q161.25611168997628 -3.1223106384277344 156.22354643685478 -1.073653357369559Q151.19098118373327 0.9750039236886161 144.6436882019043 0.9750039236886161Z M189.40340859549386 -28.898255484444753V0.0H176.01612636021204V-66.51785714285714H189.16234697614397V-37.45090757097517H188.06769234793526Q190.03109795706612 -43.695577893938335 194.0328924996512 -47.11564608982631Q198.03468704223633 -50.535714285714285 204.35519627162387 -50.535714285714285Q209.54447610037667 -50.535714285714285 213.40965270996094 -48.27902521405901Q217.2748293195452 -46.02233614240374 219.40741811479842 -41.812069756644114Q221.5400069100516 -37.60180337088449 221.5400069100516 -31.74464089529855V0.0H208.13218797956193V-29.411672864641464Q208.13218797956193 -34.06171798706055 205.7335022517613 -36.7059394291469Q203.33481652396065 -39.35016087123326 199.09995487758093 -39.35016087123326Q196.275817326137 -39.35016087123326 194.08159392220634 -38.11309405735561Q191.88737051827567 -36.87602724347796 190.64538955688477 -34.54787526811872Q189.40340859549386 -32.21972329275949 189.40340859549386 -28.898255484444753Z"/>
  <path fill="#4f46e5" d="M251.18310928344727 0.830366952078683Q245.4598753792899 0.830366952078683 240.83977971758162 -2.134373528616769Q236.21968405587333 -5.099114009312221 233.5411126273019 -10.830366952078682Q230.86254119873047 -16.561619894845144 230.86254119873047 -24.86964089529855Q230.86254119873047 -33.39818681989397 233.62369946071078 -39.10711833408901Q236.38485772269112 -44.81604984828404 240.99290030343192 -47.675882066999165Q245.60094288417272 -50.535714285714285 251.1072213309152 -50.535714285714285Q255.3465325491769 -50.535714285714285 258.1675161634173 -49.10936764308384Q260.98849977765764 -47.68302100045341 262.7215276445661 -45.591505595615935Q264.4545555114746 -43.49999019077846 265.330445425851 -41.50983810424805H265.7625961303711V-66.51785714285714H279.1498783656529V0.0H265.98224094935824V-7.988382066999163H265.330445425851Q264.40634318760465 -5.977693285260882 262.6407255445208 -3.9500127519880026Q260.87510790143693 -1.9223322187151228 258.0800151824951 -0.5459826333182198Q255.2849224635533 0.830366952078683 251.18310928344727 0.830366952078683ZM255.30531202043807 -9.900738852364677Q258.725893838065 -9.900738852364677 261.1277089800153 -11.782902308872767Q263.52952412196566 -13.66506576538086 264.7871276310512 -17.03831536429269Q266.0447311401367 -20.41156496320452 266.0447311401367 -24.910714285714285Q266.0447311401367 -29.45807593209403 264.7973959786551 -32.792036873953684Q263.5500608171736 -36.125997815813335 261.1482456752232 -37.965303148542134Q258.74643053327287 -39.804608481270925 255.30531202043807 -39.804608481270925Q251.80258342197965 -39.804608481270925 249.41460609436035 -37.90369306291853Q247.02662876674108 -36.00277764456613 245.81366811479842 -32.648280007498606Q244.60070746285575 -29.29378237043108 244.60070746285575 -24.910714285714285Q244.60070746285575 -20.53121566772461 245.82393646240234 -17.135644640241352Q247.04716546194894 -13.740073612758092 249.44541113717216 -11.820406232561385Q251.84365681239538 -9.900738852364677 255.30531202043807 -9.900738852364677Z M312.9071153913226 0.9750039236886161Q305.3982162475586 0.9750039236886161 299.91296359470914 -2.2513348715645924Q294.4277109418597 -5.477673666817801 291.4620903560094 -11.269192014421735Q288.4964697701591 -17.06071036202567 288.4964697701591 -24.739281790597097Q288.4964697701591 -32.479463304792134 291.4620903560094 -38.28125Q294.4277109418597 -44.083036695207866 299.91296359470914 -47.30937549046108Q305.3982162475586 -50.535714285714285 312.9071153913226 -50.535714285714285Q320.4365512302944 -50.535714285714285 325.9079660688128 -47.30937549046108Q331.3793809073312 -44.083036695207866 334.3450014931815 -38.28125Q337.3106220790318 -32.479463304792134 337.3106220790318 -24.739281790597097Q337.3106220790318 -17.06071036202567 334.3450014931815 -11.269192014421735Q331.3793809073312 -5.477673666817801 325.9079660688128 -2.2513348715645924Q320.4365512302944 0.9750039236886161 312.9071153913226 0.9750039236886161ZM312.9071153913226 -9.563252585274833Q316.4812823704311 -9.563252585274833 318.88444219316756 -11.549884251185826Q321.28760201590404 -13.53651591709682 322.4885095868792 -16.983868735177175Q323.6894171578544 -20.431221553257533 323.6894171578544 -24.787494114467076Q323.6894171578544 -29.188409532819477 322.4885095868792 -32.62013980320522Q321.28760201590404 -36.05187007359096 318.88444219316756 -38.0246639251709Q316.4812823704311 -39.997457776750835 312.9071153913226 -39.997457776750835Q309.3293789454869 -39.997457776750835 306.9347027369908 -38.0246639251709Q304.5400265284947 -36.05187007359096 303.33911895751953 -32.63040815080915Q302.13821138654436 -29.208946228027344 302.13821138654436 -24.787494114467076Q302.13821138654436 -20.431221553257533 303.33911895751953 -16.983868735177175Q304.5400265284947 -13.53651591709682 306.9347027369908 -11.549884251185826Q309.3293789454869 -9.563252585274833 312.9071153913226 -9.563252585274833Z M357.0509801592146 0.0 342.3268563406808 -49.910714285714285H356.37395313807895L360.7097380501883 -31.451650347028462Q361.8151010785784 -26.50524139404297 363.11108861650735 -20.677123750959126Q364.40707615443637 -14.84900610787528 365.5017307826451 -7.802573612758092H363.9731652396066Q365.1437078203474 -14.705249241420201 366.52763639177596 -20.555688313075475Q367.9115649632045 -26.40612738473075 369.1097831726074 -31.451650347028462L373.66966247558594 -49.910714285714285H386.0016523088728L390.4240335736956 -31.451650347028462Q391.57760892595564 -26.443631308419363 392.96332223074774 -20.61551366533552Q394.3490355355399 -14.787396022251674 395.5195781162807 -7.802573612758092H394.0186882019043Q395.1097733633859 -14.746322631835938 396.3352271488735 -20.57444027491978Q397.5606809343611 -26.402557918003627 398.686580657959 -31.451650347028462L403.02236557006836 -49.910714285714285H417.26231166294644L402.4417631966727 0.0H388.83395603724887L383.3008820669992 -19.262635367257253Q382.4874823434012 -22.121587480817524 381.68256623404363 -25.63275064740862Q380.8776501246861 -29.14391381399972 380.11737687247137 -32.78543608529227Q379.3571036202567 -36.42695835658482 378.5642405918666 -39.587702069963726H380.92850276402066Q380.18028259277344 -36.44749505179269 379.3976879119873 -32.79570443289621Q378.6150932312012 -29.14391381399972 377.8222302028111 -25.612213952200754Q377.02936717442105 -22.080514090401785 376.1918612888881 -19.262635367257253L370.6587873186384 0.0Z M437.75162288120816 -28.898255484444753V0.0H424.36434064592635V-49.910714285714285H437.00521196637834L437.2185979570661 -37.45090757097517H436.41590663364957Q438.37931224278043 -43.695577893938335 442.38110678536555 -47.11564608982631Q446.3829013279506 -50.535714285714285 452.70341055733815 -50.535714285714285Q457.892690386091 -50.535714285714285 461.7475986480713 -48.27902521405901Q465.6025069100516 -46.02233614240374 467.73509570530484 -41.812069756644114Q469.867684500558 -37.60180337088449 469.867684500558 -31.74464089529855V0.0H456.4804022652762V-29.411672864641464Q456.4804022652762 -34.06171798706055 454.0817165374756 -36.7059394291469Q451.68303080967496 -39.35016087123326 447.4481691632952 -39.35016087123326Q444.62403161185125 -39.35016087123326 442.4298082079206 -38.11309405735561Q440.2355848039899 -36.87602724347796 438.99360384259904 -34.54787526811872Q437.75162288120816 -32.21972329275949 437.75162288120816 -28.898255484444753Z"/>
</g>
</svg>
