<svg xmlns="http://www.w3.org/2000/svg" viewBox="0 0 846 142" width="846" height="142">
<g transform="translate(12.00 128.41)">
  <path fill="#0f172a" d="M51.44526958465576 0.0H21.2953519821167V-20.549697875976562H50.33902645111084Q61.56258583068848 -20.549697875976562 69.16890621185303 -24.52397584915161Q76.77522659301758 -28.49825382232666 80.62525749206543 -36.861608028411865Q84.47528839111328 -45.22496223449707 84.47528839111328 -58.26875686645508Q84.47528839111328 -71.28285884857178 80.60104131698608 -79.59230422973633Q76.72679424285889 -87.90174961090088 69.17985916137695 -91.87915086746216Q61.63292407989502 -95.85655212402344 50.479702949523926 -95.85655212402344H20.75472354888916V-116.40625H51.875Q69.41247940063477 -116.40625 82.01011419296265 -109.43203210830688Q94.60774898529053 -102.45781421661377 101.41164064407349 -89.42890882492065Q108.21553230285645 -76.40000343322754 108.21553230285645 -58.26875686645508Q108.21553230285645 -40.10781764984131 101.41476392745972 -27.042973041534424Q94.61399555206299 -13.978128433227539 81.89682006835938 -6.9890642166137695Q69.17964458465576 0.0 51.44526958465576 0.0ZM34.39040184020996 -116.40625V0.0H10.51889419555664V-116.40625Z M149.93916034698486 1.6937637329101562Q141.61572456359863 1.6937637329101562 135.02665519714355 -1.2414002418518066Q128.43758583068848 -4.1765642166137695 124.66413974761963 -9.981260299682617Q120.89069366455078 -15.785956382751465 120.89069366455078 -24.421892166137695Q120.89069366455078 -31.753149032592773 123.56414318084717 -36.651577949523926Q126.23759269714355 -41.55000686645508 130.88213682174683 -44.54061985015869Q135.5266809463501 -47.531232833862305 141.43684148788452 -49.09137964248657Q147.34700202941895 -50.65152645111084 153.82042407989502 -51.26403331756592Q161.37980937957764 -52.026543617248535 166.02747678756714 -52.69997596740723Q170.67514419555664 -53.37340831756592 172.8470277786255 -54.806997776031494Q175.01891136169434 -56.24058723449707 175.01891136169434 -59.064040184020996V-59.448418617248535Q175.01891136169434 -63.187551498413086 173.43061208724976 -65.77431917190552Q171.84231281280518 -68.36108684539795 168.7922716140747 -69.73845720291138Q165.74223041534424 -71.1158275604248 161.29372596740723 -71.1158275604248Q156.8155288696289 -71.1158275604248 153.4592342376709 -69.75330352783203Q150.1029396057129 -68.39077949523926 147.96228885650635 -66.11497163772583Q145.8216381072998 -63.8391637802124 144.87943172454834 -61.003217697143555L123.39069366455078 -64.57044124603271Q125.61105251312256 -72.20170497894287 130.85013389587402 -77.51651525497437Q136.0892152786255 -82.83132553100586 143.87120962142944 -85.63441276550293Q151.6532039642334 -88.4375 161.36714458465576 -88.4375Q168.39984893798828 -88.4375 175.04043102264404 -86.77111864089966Q181.6810131072998 -85.10473728179932 186.96069717407227 -81.55787944793701Q192.24038124084473 -78.0110216140747 195.3435182571411 -72.38443851470947Q198.4466552734375 -66.75785541534424 198.4466552734375 -58.801512718200684V0.0H176.22355937957764V-12.128114700317383H175.45480251312256Q173.3376407623291 -8.068780899047852 169.82436895370483 -4.953150749206543Q166.31109714508057 -1.8375205993652344 161.37202262878418 -0.07187843322753906Q156.4329481124878 1.6937637329101562 149.93916034698486 1.6937637329101562ZM156.53742790222168 -14.735760688781738Q162.07189559936523 -14.735760688781738 166.26022577285767 -16.93892002105713Q170.4485559463501 -19.14207935333252 172.81810522079468 -22.885875701904297Q175.18765449523926 -26.629672050476074 175.18765449523926 -31.225013732910156V-40.67668437957764Q174.1173505783081 -39.95635986328125 172.02825546264648 -39.32588338851929Q169.93916034698486 -38.695406913757324 167.3672389984131 -38.196964263916016Q164.7953176498413 -37.69852161407471 162.2890281677246 -37.33211278915405Q159.7827386856079 -36.9657039642334 157.83586025238037 -36.68914318084717Q153.51707935333252 -36.1063289642334 150.24203300476074 -34.70944881439209Q146.96698665618896 -33.31256866455078 145.15445232391357 -30.973482131958008Q143.34191799163818 -28.634395599365234 143.34191799163818 -25.1108980178833Q143.34191799163818 -21.718664169311523 145.05288124084473 -19.410040378570557Q146.76384449005127 -17.10141658782959 149.72951412200928 -15.918588638305664Q152.69518375396729 -14.735760688781738 156.53742790222168 -14.735760688781738Z M253.12645435333252 1.7062568664550781Q242.581205368042 1.7062568664550781 234.45000171661377 -1.3116955757141113Q226.31879806518555 -4.329648017883301 221.1758542060852 -10.055406093597412Q216.03291034698486 -15.781164169311523 214.5125961303711 -23.87176513671875L236.35131359100342 -27.623305320739746Q238.0575704574585 -21.53263568878174 242.34588861465454 -18.489654064178467Q246.6342067718506 -15.446672439575195 253.81392002105713 -15.446672439575195Q260.50776958465576 -15.446672439575195 264.39767599105835 -18.00297737121582Q268.28758239746094 -20.559282302856445 268.28758239746094 -24.47340488433838Q268.28758239746094 -27.907824516296387 265.5242848396301 -30.093014240264893Q262.7609872817993 -32.2782039642334 256.99377059936523 -33.467278480529785L241.95629119873047 -36.56729221343994Q229.32194709777832 -39.16886329650879 223.07665348052979 -45.3626012802124Q216.83135986328125 -51.556339263916016 216.83135986328125 -61.36569023132324Q216.83135986328125 -69.75159168243408 221.4086890220642 -75.81017255783081Q225.98601818084717 -81.86875343322754 234.21879291534424 -85.15312671661377Q242.4515676498413 -88.4375 253.47805976867676 -88.4375Q263.85456562042236 -88.4375 271.4302945137024 -85.57344436645508Q279.0060234069824 -82.70938873291016 283.66849422454834 -77.4976897239685Q288.33096504211426 -72.28599071502686 289.9466037750244 -65.14384269714355L269.1547441482544 -61.48292064666748Q267.7797269821167 -65.95949172973633 264.0008044242859 -68.79625082015991Q260.2218818664551 -71.6330099105835 253.85148525238037 -71.6330099105835Q248.06390285491943 -71.6330099105835 244.15525674819946 -69.19936895370483Q240.2466106414795 -66.76572799682617 240.2466106414795 -62.77348041534424Q240.2466106414795 -59.490604400634766 242.77086973190308 -57.21479654312134Q245.29512882232666 -54.93898868560791 251.4748764038086 -53.648343086242676L267.1669626235962 -50.523343086242676Q279.84349250793457 -47.96395778656006 286.0317540168762 -42.128798961639404Q292.22001552581787 -36.29364013671875 292.22001552581787 -26.929593086242676Q292.22001552581787 -18.345255851745605 287.2091054916382 -11.90464973449707Q282.1981954574585 -5.464043617248535 273.39120626449585 -1.8788933753967285Q264.5842170715332 1.7062568664550781 253.12645435333252 1.7062568664550781Z M331.45596504211426 -50.57194709777832V0.0H308.0282211303711V-116.40625H331.03410720825195V-65.53908824920654H329.1184616088867Q332.5544214248657 -76.46726131439209 339.55756187438965 -82.45238065719604Q346.5607023239136 -88.4375 357.6215934753418 -88.4375Q366.7028331756592 -88.4375 373.46689224243164 -84.48829412460327Q380.2309513092041 -80.53908824920654 383.9629817008972 -73.1711220741272Q387.69501209259033 -65.80315589904785 387.69501209259033 -55.55312156677246V0.0H364.2313289642334V-51.47042751312256Q364.2313289642334 -59.60800647735596 360.0336289405823 -64.23539400100708Q355.83592891693115 -68.8627815246582 348.4249210357666 -68.8627815246582Q343.48268032073975 -68.8627815246582 339.6427893638611 -66.69791460037231Q335.8028984069824 -64.53304767608643 333.62943172454834 -60.458781719207764Q331.45596504211426 -56.3845157623291 331.45596504211426 -50.57194709777832Z"/>
  <path fill="#4f46e5" d="M439.5704412460327 1.4531421661376953Q429.5547819137573 1.4531421661376953 421.4696145057678 -3.7351536750793457Q413.3844470977783 -8.923449516296387 408.6969470977783 -18.953142166137695Q404.0094470977783 -28.982834815979004 404.0094470977783 -43.52187156677246Q404.0094470977783 -58.44682693481445 408.8414740562439 -68.43745708465576Q413.6735010147095 -78.42808723449707 421.73757553100586 -83.43279361724854Q429.80165004730225 -88.4375 439.43763732910156 -88.4375Q446.85643196105957 -88.4375 451.7931532859802 -85.94139337539673Q456.7298746109009 -83.44528675079346 459.7626733779907 -79.78513479232788Q462.79547214508057 -76.1249828338623 464.32827949523926 -72.64221668243408H465.0845432281494V-116.40625H488.5122871398926V0.0H465.46892166137695V-13.979668617248535H464.32827949523926Q462.7111005783081 -10.460963249206543 459.6212697029114 -6.912522315979004Q456.53143882751465 -3.364081382751465 451.64002656936646 -0.9554696083068848Q446.74861431121826 1.4531421661376953 439.5704412460327 1.4531421661376953ZM446.7842960357666 -17.326292991638184Q452.77031421661377 -17.326292991638184 456.97349071502686 -20.620079040527344Q461.17666721343994 -23.913865089416504 463.3774733543396 -29.817051887512207Q465.57827949523926 -35.72023868560791 465.57827949523926 -43.59375Q465.57827949523926 -51.55163288116455 463.3954429626465 -57.386064529418945Q461.2126064300537 -63.22049617767334 457.0094299316406 -66.43928050994873Q452.80625343322754 -69.65806484222412 446.7842960357666 -69.65806484222412Q440.65452098846436 -69.65806484222412 436.4755606651306 -66.33146286010742Q432.2966003417969 -63.00486087799072 430.1739192008972 -57.13449001312256Q428.05123805999756 -51.264119148254395 428.05123805999756 -43.59375Q428.05123805999756 -35.929627418518066 430.1918888092041 -29.987378120422363Q432.33253955841064 -24.04512882232666 436.52946949005127 -20.685710906982422Q440.7263994216919 -17.326292991638184 446.7842960357666 -17.326292991638184Z M547.5874519348145 1.7062568664550781Q534.4468784332275 1.7062568664550781 524.847686290741 -3.939836025238037Q515.2484941482544 -9.585928916931152 510.05865812301636 -19.721086025238037Q504.8688220977783 -29.856243133544922 504.8688220977783 -43.29374313354492Q504.8688220977783 -56.83906078338623 510.05865812301636 -66.9921875Q515.2484941482544 -77.14531421661377 524.847686290741 -82.79140710830688Q534.4468784332275 -88.4375 547.5874519348145 -88.4375Q560.7639646530151 -88.4375 570.3389406204224 -82.79140710830688Q579.9139165878296 -77.14531421661377 585.1037526130676 -66.9921875Q590.2935886383057 -56.83906078338623 590.2935886383057 -43.29374313354492Q590.2935886383057 -29.856243133544922 585.1037526130676 -19.721086025238037Q579.9139165878296 -9.585928916931152 570.3389406204224 -3.939836025238037Q560.7639646530151 1.7062568664550781 547.5874519348145 1.7062568664550781ZM547.5874519348145 -16.735692024230957Q553.8422441482544 -16.735692024230957 558.0477738380432 -20.212297439575195Q562.253303527832 -23.688902854919434 564.3548917770386 -29.72177028656006Q566.4564800262451 -35.754637718200684 566.4564800262451 -43.37811470031738Q566.4564800262451 -51.07971668243408 564.3548917770386 -57.08524465560913Q562.253303527832 -63.09077262878418 558.0477738380432 -66.54316186904907Q553.8422441482544 -69.99555110931396 547.5874519348145 -69.99555110931396Q541.326413154602 -69.99555110931396 537.1357297897339 -66.54316186904907Q532.9450464248657 -63.09077262878418 530.8434581756592 -57.103214263916016Q528.7418699264526 -51.11565589904785 528.7418699264526 -43.37811470031738Q528.7418699264526 -35.754637718200684 530.8434581756592 -29.72177028656006Q532.9450464248657 -23.688902854919434 537.1357297897339 -20.212297439575195Q541.326413154602 -16.735692024230957 547.5874519348145 -16.735692024230957Z M624.8392152786255 0.0 599.0719985961914 -87.34375H623.6544179916382L631.2420415878296 -55.040388107299805Q633.1764268875122 -46.384172439575195 635.4444050788879 -36.18496656417847Q637.7123832702637 -25.98576068878174 639.6280288696289 -13.65450382232666H636.9530391693115Q639.0014886856079 -25.73418617248535 641.4233636856079 -35.97245454788208Q643.8452386856079 -46.21072292327881 645.942120552063 -55.040388107299805L653.9219093322754 -87.34375H675.5028915405273L683.2420587539673 -55.040388107299805Q685.2608156204224 -46.27635478973389 687.6858139038086 -36.07714891433716Q690.1108121871948 -25.87794303894043 692.1592617034912 -13.65450382232666H689.5327043533325Q691.4421033859253 -25.80606460571289 693.5866475105286 -36.00527048110962Q695.7311916351318 -46.20447635650635 697.7015161514282 -55.040388107299805L705.2891397476196 -87.34375H730.2090454101562L704.2730855941772 0.0H680.4594230651855L670.7765436172485 -33.709611892700195Q669.3530941009521 -38.712778091430664 667.9444909095764 -44.85731363296509Q666.5358877182007 -51.00184917449951 665.205409526825 -57.374513149261475Q663.8749313354492 -63.74717712402344 662.4874210357666 -69.27847862243652H666.6248798370361Q665.3154945373535 -63.78311634063721 663.9459538459778 -57.39248275756836Q662.576413154602 -51.00184917449951 661.1889028549194 -44.82137441635132Q659.8013925552368 -38.640899658203125 658.3357572555542 -33.709611892700195L648.6528778076172 0.0Z M766.0653400421143 -50.57194709777832V0.0H742.6375961303711V-87.34375H764.7591209411621L765.1325464248657 -65.53908824920654H763.7278366088867Q767.1637964248657 -76.46726131439209 774.1669368743896 -82.45238065719604Q781.1700773239136 -88.4375 792.2309684753418 -88.4375Q801.3122081756592 -88.4375 808.0582976341248 -84.48829412460327Q814.8043870925903 -80.53908824920654 818.5364174842834 -73.1711220741272Q822.2684478759766 -65.80315589904785 822.2684478759766 -55.55312156677246V0.0H798.8407039642334V-51.47042751312256Q798.8407039642334 -59.60800647735596 794.6430039405823 -64.23539400100708Q790.4453039169312 -68.8627815246582 783.0342960357666 -68.8627815246582Q778.0920553207397 -68.8627815246582 774.2521643638611 -66.69791460037231Q770.4122734069824 -64.53304767608643 768.2388067245483 -60.458781719207764Q766.0653400421143 -56.3845157623291 766.0653400421143 -50.57194709777832Z"/>
</g>
</svg>
